<?xml version="1.0" encoding="utf-8"?>
<!-- Generator: Adobe Illustrator 16.0.0, SVG Export Plug-In . SVG Version: 6.00 Build 0)  -->
<!DOCTYPE svg PUBLIC "-//W3C//DTD SVG 1.1//EN" "http://www.w3.org/Graphics/SVG/1.1/DTD/svg11.dtd">
<svg version="1.1" id="Layer_1" xmlns="http://www.w3.org/2000/svg" xmlns:xlink="http://www.w3.org/1999/xlink" x="0px" y="0px"
	 width="99.225px" height="108.527px" viewBox="0 0 99.225 108.527" enable-background="new 0 0 99.225 108.527"
	 xml:space="preserve">
	<rect x="4.736" y="4.124" width="91" height="3"/>
	<rect x="18.736" y="38.124" width="57" height="3"/>
	<rect x="13.736" y="24.124" width="69" height="3"/>
	<rect x="16.736" y="43.124" width="55" height="3"/>
	<rect x="13.736" y="48.124" width="54" height="3"/>
	<rect x="18.736" y="33.124" width="59" height="3"/>
	<rect x="16.736" y="28.124" width="63" height="3"/>
	<rect x="11.736" y="19.124" width="74" height="3"/>
	<rect x="9.736" y="14.124" width="81" height="3"/>
	<rect x="6.736" y="9.124" width="88" height="3"/>
	<rect x="8.736" y="82.124" width="25" height="3"/>
	<rect x="5.736" y="87.124" width="23" height="3"/>
	<rect x="10.736" y="77.124" width="27" height="3"/>
	<rect x="8.736" y="72.124" width="35" height="3"/>
	<rect x="5.736" y="67.124" width="44" height="3"/>
	<rect x="8.736" y="63.124" width="47" height="3"/>
	<rect x="10.736" y="58.124" width="50" height="3"/>
	<rect x="11.736" y="53.124" width="52" height="3"/>
	<rect x="4.736" y="92.124" width="19" height="3"/>
	<rect x="6.736" y="97.124" width="13" height="3"/>
	<rect x="9.736" y="102.124" width="8" height="3"/>
</svg>
