<?xml version="1.0" encoding="utf-8"?>
<!-- Generator: Adobe Illustrator 16.0.0, SVG Export Plug-In . SVG Version: 6.00 Build 0)  -->
<!DOCTYPE svg PUBLIC "-//W3C//DTD SVG 1.1//EN" "http://www.w3.org/Graphics/SVG/1.1/DTD/svg11.dtd">
<svg version="1.1" id="Layer_1" xmlns="http://www.w3.org/2000/svg" xmlns:xlink="http://www.w3.org/1999/xlink" x="0px" y="0px"
	 width="662px" height="560px" viewBox="149.5 0 662 560" enable-background="new 149.5 0 662 560" xml:space="preserve">
<rect x="156.093" y="6.695" width="649.349" height="16.234"/>
<rect x="255.118" y="193.383" width="405.843" height="16.233"/>
<rect x="222.651" y="113.837" width="491.881" height="16.234"/>
<rect x="240.508" y="219.356" width="392.856" height="16.234"/>
<rect x="222.651" y="246.954" width="384.739" height="16.234"/>
<rect x="255.118" y="165.785" width="420.453" height="16.234"/>
<rect x="240.508" y="139.812" width="451.298" height="16.233"/>
<rect x="209.664" y="86.24" width="527.596" height="16.233"/>
<rect x="188.56" y="60.266" width="584.414" height="16.234"/>
<rect x="172.326" y="32.669" width="626.622" height="16.233"/>
<rect x="182.066" y="433.642" width="181.818" height="16.233"/>
<rect x="165.833" y="459.615" width="162.337" height="16.234"/>
<rect x="199.924" y="406.044" width="193.181" height="16.234"/>
<rect x="182.066" y="380.07" width="256.493" height="16.233"/>
<rect x="165.833" y="352.473" width="311.688" height="16.234"/>
<rect x="182.066" y="326.499" width="336.038" height="16.233"/>
<rect x="199.924" y="300.525" width="358.765" height="16.233"/>
<rect x="209.664" y="272.928" width="371.752" height="16.234"/>
<rect x="156.093" y="485.59" width="134.74" height="16.233"/>
<rect x="172.326" y="511.563" width="94.156" height="16.233"/>
<rect x="188.56" y="539.161" width="60.065" height="16.233"/>
</svg>
